<?xml version="1.0" standalone="no"?><!DOCTYPE svg PUBLIC "-//W3C//DTD SVG 1.1//EN" "http://www.w3.org/Graphics/SVG/1.1/DTD/svg11.dtd"><svg t="1630494440560" class="icon" viewBox="0 0 1024 1024" version="1.1" xmlns="http://www.w3.org/2000/svg" p-id="2172" width="128" height="128" xmlns:xlink="http://www.w3.org/1999/xlink"><defs><style type="text/css">@font-face { font-family: element-icons; src: url("chrome-extension://moombeodfomdpjnpocobemoiaemednkg/fonts/element-icons.woff") format("woff"), url("chrome-extension://moombeodfomdpjnpocobemoiaemednkg/fonts/element-icons.ttf ") format("truetype"); }
</style></defs><path d="M512 0C229.180952 0 0 229.180952 0 512s229.180952 512 512 512 512-229.180952 512-512S794.819048 0 512 0z m0 926.47619c-229.180952 0-414.47619-185.295238-414.47619-414.47619S282.819048 97.52381 512 97.52381s414.47619 185.295238 414.47619 414.47619-185.295238 414.47619-414.47619 414.47619z" fill="#50BC93" p-id="2173"></path><path d="M733.866667 458.361905l-292.571429-195.047619c-14.628571-9.752381-34.133333-9.752381-51.2-2.438096-17.066667 7.314286-26.819048 24.380952-26.819048 43.885715v390.095238c0 17.066667 9.752381 34.133333 26.819048 43.885714 7.314286 4.87619 14.628571 4.87619 21.942857 4.876191 9.752381 0 19.504762-2.438095 26.819048-7.314286l292.571428-195.047619c14.628571-9.752381 21.942857-24.380952 21.942858-41.447619s-4.87619-31.695238-19.504762-41.447619z m-270.628572 146.285714v-207.238095l156.038095 104.838095-156.038095 102.4z" fill="#50BC93" p-id="2174"></path></svg>