<?xml version="1.0" standalone="no"?><!DOCTYPE svg PUBLIC "-//W3C//DTD SVG 1.1//EN" "http://www.w3.org/Graphics/SVG/1.1/DTD/svg11.dtd"><svg t="1630495568354" class="icon" viewBox="0 0 1024 1024" version="1.1" xmlns="http://www.w3.org/2000/svg" p-id="8204" xmlns:xlink="http://www.w3.org/1999/xlink" width="128" height="128"><defs><style type="text/css">@font-face { font-family: element-icons; src: url("chrome-extension://moombeodfomdpjnpocobemoiaemednkg/fonts/element-icons.woff") format("woff"), url("chrome-extension://moombeodfomdpjnpocobemoiaemednkg/fonts/element-icons.ttf ") format("truetype"); }
</style></defs><path d="M512 77.482667A434.517333 434.517333 0 1 1 77.482667 512 435.029333 435.029333 0 0 1 512 77.482667M512 0a512 512 0 1 0 512 512A512 512 0 0 0 512 0z" fill="#d81e06" p-id="8205"></path><path d="M351.914667 328.533333m38.4 0l0 0q38.4 0 38.4 38.4l0 290.133334q0 38.4-38.4 38.4l0 0q-38.4 0-38.4-38.4l0-290.133334q0-38.4 38.4-38.4Z" fill="#d81e06" p-id="8206"></path><path d="M595.114667 328.533333m38.4 0l0 0q38.4 0 38.4 38.4l0 290.133334q0 38.4-38.4 38.4l0 0q-38.4 0-38.4-38.4l0-290.133334q0-38.4 38.4-38.4Z" fill="#d81e06" p-id="8207"></path></svg>