<?xml version="1.0" standalone="no"?><!DOCTYPE svg PUBLIC "-//W3C//DTD SVG 1.1//EN" "http://www.w3.org/Graphics/SVG/1.1/DTD/svg11.dtd"><svg t="1625738433765" class="icon" viewBox="0 0 1024 1024" version="1.1" xmlns="http://www.w3.org/2000/svg" p-id="10568" xmlns:xlink="http://www.w3.org/1999/xlink" width="200" height="200"><defs><style type="text/css">@font-face { font-family: element-icons; src: url("chrome-extension://moombeodfomdpjnpocobemoiaemednkg/fonts/element-icons.woff") format("woff"), url("chrome-extension://moombeodfomdpjnpocobemoiaemednkg/fonts/element-icons.ttf ") format("truetype"); }
</style></defs><path d="M490.918733 0.00064c115.967928 0 222.463861 40.127975 306.495809 107.327933L876.646492 28.160622l77.119952 77.119952-79.231951 79.231951a490.879693 490.879693 0 1 1-767.16752 0L28.199022 105.280574 105.254974 28.160622l79.231951 79.231951A488.575695 488.575695 0 0 1 490.982733 0.00064z m0 872.703455a381.823761 381.823761 0 1 0 0.064-763.583523 381.823761 381.823761 0 0 0 0 763.583523z m54.591966-436.351728h163.647898l-272.76783 354.559779V545.472299H272.74287l272.767829-354.815778v245.759846z" p-id="10569" fill="#ffffff"></path></svg>